<?xml version="1.0" standalone="no"?>
<!DOCTYPE svg PUBLIC "-//W3C//DTD SVG 20010904//EN"
 "http://www.w3.org/TR/2001/REC-SVG-20010904/DTD/svg10.dtd">
<svg version="1.0" xmlns="http://www.w3.org/2000/svg"
 width="850.000000pt" height="850.000000pt" viewBox="0 0 850.000000 850.000000"
 preserveAspectRatio="xMidYMid meet">

<g transform="translate(0.000000,850.000000) scale(0.100000,-0.100000)"
fill="#000000" stroke="none">
<path d="M4115 8134 c-590 -33 -1056 -156 -1555 -410 -895 -455 -1579 -1261
-1899 -2238 -133 -404 -193 -789 -193 -1231 0 -442 60 -827 193 -1231 441
-1346 1561 -2337 2925 -2589 423 -78 915 -78 1338 0 1261 233 2330 1108 2826
2315 196 478 292 973 292 1505 0 442 -60 827 -193 1231 -441 1346 -1561 2337
-2924 2589 -231 42 -610 70 -810 59z m482 -599 c610 -64 1196 -308 1688 -701
140 -112 385 -357 499 -499 392 -489 630 -1050 723 -1697 25 -176 25 -700 0
-876 -93 -647 -331 -1206 -723 -1697 -113 -141 -358 -386 -499 -499 -587 -470
-1284 -716 -2025 -716 -732 0 -1405 234 -2000 696 -143 111 -408 373 -524 519
-393 493 -630 1050 -723 1696 -25 178 -25 700 0 878 93 646 331 1205 723 1696
113 141 358 386 499 499 485 388 1076 635 1675 700 175 19 509 19 687 1z"/>
<path d="M3185 7266 c-41 -12 -51 -29 -54 -97 -1 -23 2 -26 23 -22 18 4 31 20
50 65 15 34 25 62 24 63 -2 1 -21 -3 -43 -9z"/>
<path d="M4127 7203 c-4 -38 -7 -141 -7 -230 l0 -163 45 0 45 0 0 96 c0 52 4
93 8 90 4 -2 21 -45 37 -95 l29 -90 43 -7 c24 -3 47 -3 50 0 4 4 -8 51 -25
106 -33 99 -33 99 -13 119 49 49 48 152 -2 199 -23 22 -105 42 -173 42 -31 0
-31 0 -37 -67z m131 -39 c40 -28 24 -94 -22 -94 -19 0 -21 5 -18 55 2 30 7 55
11 55 3 0 17 -7 29 -16z"/>
<path d="M3774 7225 c-77 -82 -65 -314 22 -400 31 -31 40 -35 89 -35 105 0
151 75 143 233 -6 108 -27 165 -74 207 -30 26 -43 30 -91 30 -51 0 -59 -3 -89
-35z m135 -100 c19 -39 27 -185 12 -213 -7 -14 -21 -22 -37 -22 -33 0 -52 45
-61 145 -5 60 -3 79 11 100 23 34 56 30 75 -10z"/>
<path d="M4682 7173 c-34 -158 -75 -394 -70 -399 4 -3 24 -8 46 -11 39 -5 39
-5 46 33 4 22 12 59 17 84 l10 45 53 0 c40 0 60 5 76 20 77 70 67 211 -17 243
-26 10 -124 32 -143 32 -4 0 -13 -21 -18 -47z m136 -105 c4 -30 -21 -58 -50
-58 -19 0 -20 4 -13 48 4 26 9 51 12 55 9 15 48 -20 51 -45z"/>
<path d="M3439 7182 c-27 -24 -33 -37 -36 -83 -6 -69 18 -107 102 -165 50 -34
60 -45 60 -70 0 -28 -1 -29 -51 -29 l-51 1 11 -51 c11 -48 13 -50 48 -53 88
-7 152 55 145 141 -5 60 -27 91 -101 142 -68 47 -83 69 -65 92 10 11 25 14 54
10 l42 -4 -10 48 -10 49 -53 0 c-45 0 -59 -5 -85 -28z"/>
<path d="M3175 7116 c-51 -17 -69 -27 -67 -39 5 -30 121 -409 126 -415 3 -3
44 5 91 19 91 25 94 29 74 88 -7 20 -16 30 -24 27 -8 -3 -29 -8 -47 -11 -32
-6 -35 -5 -45 30 -12 39 -16 35 55 60 13 5 12 17 -9 72 -7 20 -12 21 -34 13
-39 -15 -53 -12 -59 10 -3 11 -8 28 -11 39 -4 15 3 21 40 31 25 7 45 15 45 18
0 2 -5 22 -12 43 -13 46 -21 47 -123 15z"/>
<path d="M5051 7118 c-5 -13 -28 -84 -51 -158 -49 -154 -56 -226 -25 -260 60
-67 171 -72 215 -10 25 35 133 362 122 371 -14 13 -76 29 -83 22 -3 -5 -27
-75 -53 -157 -26 -82 -52 -156 -58 -163 -18 -22 -57 -16 -63 10 -3 13 15 89
45 181 27 88 49 160 47 161 -5 5 -71 25 -79 25 -5 0 -12 -10 -17 -22z"/>
<path d="M2870 7010 c-14 -4 -47 -17 -74 -29 -38 -17 -47 -25 -41 -39 29 -75
160 -389 165 -395 4 -4 25 0 47 10 l41 18 -39 95 -39 95 74 -79 74 -80 42 14
c22 7 43 16 45 20 2 3 -28 41 -66 83 -70 76 -70 76 -60 115 18 67 -15 143 -74
168 -38 15 -57 16 -95 4z m74 -123 c7 -19 7 -34 0 -45 -19 -30 -39 -25 -53 15
-8 21 -16 44 -19 51 -3 10 4 13 29 10 26 -2 36 -9 43 -31z"/>
<path d="M5430 6967 c-11 -23 -53 -116 -93 -207 l-75 -165 67 -32 c142 -69
242 -19 228 114 -4 38 -2 53 7 53 23 0 67 56 73 93 11 72 -21 113 -131 161
l-57 25 -19 -42z m110 -122 c0 -41 -37 -66 -68 -46 -11 7 -10 16 7 50 19 36
24 40 41 31 11 -6 20 -21 20 -35z m-75 -149 c18 -27 11 -52 -17 -67 -20 -11
-58 -4 -58 11 0 21 35 80 47 80 7 0 19 -11 28 -24z"/>
<path d="M2557 6866 c-43 -24 -83 -48 -88 -53 -8 -8 12 -58 37 -92 2 -2 14 3
28 12 30 20 25 26 111 -138 37 -71 72 -135 77 -142 8 -10 19 -8 49 7 21 11 39
22 39 24 0 2 -37 73 -81 156 -65 121 -79 154 -68 161 42 25 42 25 20 68 -12
22 -27 41 -34 40 -6 0 -47 -20 -90 -43z"/>
<path d="M5665 6663 c-59 -104 -107 -192 -108 -197 -2 -8 119 -85 134 -86 4 0
18 19 32 43 l25 42 -29 19 c-20 13 -28 24 -24 35 3 9 39 75 80 147 41 73 75
136 75 140 0 10 -56 44 -70 44 -5 0 -57 -84 -115 -187z"/>
<path d="M4043 6720 c-300 -29 -575 -108 -843 -241 -246 -123 -438 -260 -629
-449 -385 -380 -628 -863 -712 -1412 -32 -204 -32 -532 0 -736 84 -549 327
-1031 711 -1411 368 -366 834 -598 1360 -678 159 -24 491 -24 650 0 529 81
997 314 1367 684 379 379 621 860 704 1405 18 116 22 186 22 368 0 182 -4 252
-22 368 -84 549 -327 1030 -711 1412 -365 362 -838 599 -1350 675 -129 19
-422 27 -547 15z m562 -314 c355 -66 657 -197 937 -407 112 -84 328 -302 415
-419 219 -293 354 -611 420 -985 25 -142 25 -558 0 -700 -70 -399 -227 -749
-470 -1050 -91 -113 -274 -287 -392 -373 -374 -274 -790 -411 -1247 -412 -467
0 -900 145 -1280 431 -112 84 -328 302 -415 419 -219 293 -350 602 -419 985
-15 79 -18 153 -18 350 0 197 3 271 18 350 86 478 276 857 594 1187 184 190
350 312 592 432 212 105 452 178 675 205 120 15 482 6 590 -13z"/>
<path d="M3990 5852 c-25 -26 -29 -37 -36 -128 -11 -134 -11 -1272 -1 -1406 8
-102 21 -136 31 -85 3 12 7 85 11 162 3 77 8 174 10 215 9 130 24 535 31 802
4 142 9 283 13 315 l6 57 100 -3 c133 -3 157 -11 241 -79 69 -55 171 -135 444
-350 69 -54 168 -130 220 -170 52 -40 107 -81 121 -93 15 -12 32 -20 39 -17
13 4 -270 272 -416 395 -45 37 -160 134 -255 214 -96 80 -186 153 -200 162
-18 12 -64 20 -150 27 -177 14 -177 14 -209 -18z"/>
<path d="M5346 4901 c-11 -17 62 -69 118 -85 31 -9 72 -30 91 -47 33 -29 35
-35 35 -90 0 -52 3 -60 26 -76 14 -9 50 -19 80 -21 l55 -5 -5 -41 c-3 -22 -10
-108 -16 -191 -19 -283 -17 -274 -64 -318 -64 -61 -84 -67 -239 -78 -78 -5
-187 -18 -242 -28 -55 -11 -152 -22 -215 -24 -92 -4 -129 -11 -185 -32 -99
-37 -212 -100 -240 -134 -17 -19 -38 -30 -65 -35 -33 -5 -44 -14 -66 -47 -14
-22 -39 -48 -56 -57 -17 -10 -38 -25 -47 -34 -11 -13 -32 -18 -76 -19 -45 -1
-54 -3 -35 -9 36 -12 118 -12 125 0 3 5 23 14 45 20 26 7 49 23 70 50 26 33
38 40 66 40 27 0 44 9 76 40 24 22 67 49 97 61 31 11 61 25 68 31 7 6 13 7 13
3 0 -4 11 0 24 8 34 23 134 37 261 37 61 0 142 6 180 14 39 8 126 17 195 21
69 3 148 13 177 21 69 19 176 110 192 163 12 43 31 316 31 466 0 135 -7 145
-101 145 l-69 0 0 39 c0 23 -9 51 -23 72 -26 40 -105 85 -162 94 -22 4 -57 18
-77 31 -20 13 -39 20 -42 15z"/>
<path d="M3205 4025 c-16 -9 -55 -19 -85 -22 -30 -3 -76 -11 -102 -20 -43 -13
-50 -13 -70 1 -46 32 -77 21 -161 -58 -86 -80 -96 -103 -97 -206 0 -80 22
-161 56 -205 27 -36 29 -45 29 -128 0 -81 2 -90 24 -108 25 -20 26 -20 225
-19 83 1 128 6 147 16 40 20 46 18 59 -23 7 -21 21 -54 32 -74 16 -29 18 -41
9 -57 -18 -33 -13 -56 18 -86 16 -15 31 -40 34 -55 13 -66 84 -109 148 -91 17
5 54 9 83 8 28 0 77 5 109 12 46 11 64 11 96 0 44 -14 73 -8 103 23 34 36 67
122 74 194 8 73 8 74 114 165 47 41 49 65 3 29 -15 -12 -53 -39 -83 -59 -38
-26 -56 -46 -61 -67 -32 -131 -45 -170 -66 -196 -25 -30 -66 -39 -79 -18 -5 8
-27 9 -73 4 -36 -5 -100 -9 -141 -9 -41 -1 -84 -5 -96 -9 -12 -4 -27 -2 -36 5
-19 15 -48 112 -48 161 0 19 -13 61 -29 93 -15 33 -31 71 -35 86 -8 35 -53 88
-75 88 -10 0 -39 -11 -66 -24 -39 -20 -64 -25 -134 -26 -47 0 -104 3 -126 7
l-40 8 3 60 c2 49 -2 67 -22 100 -57 91 -58 96 -60 190 l-1 92 55 51 c41 39
60 50 75 46 54 -16 87 -15 128 4 23 10 65 22 92 26 28 4 67 14 88 23 36 16 45
16 145 -1 187 -32 487 -21 550 20 32 21 24 26 -24 13 -67 -19 -391 -5 -504 21
-136 31 -151 33 -185 15z"/>
<path d="M5892 6533 c-65 -98 -121 -183 -125 -189 -4 -7 10 -22 32 -37 l39
-26 126 190 c69 104 126 191 126 193 0 5 -65 46 -74 46 -3 0 -59 -80 -124
-177z"/>
<path d="M6190 6531 c-49 -15 -87 -40 -129 -86 -57 -62 -81 -116 -81 -188 0
-69 19 -109 69 -139 l34 -22 33 40 c39 46 40 50 15 57 -31 8 -54 52 -47 91 13
69 89 146 144 146 14 0 38 -11 52 -25 l26 -25 33 41 33 41 -28 29 c-40 41 -99
57 -154 40z"/>
<path d="M3605 1668 c-69 -286 -124 -553 -115 -558 6 -4 40 -12 76 -19 88 -16
136 -2 190 53 45 48 69 111 83 221 22 178 -30 279 -156 305 -32 7 -61 14 -65
17 -4 2 -10 -6 -13 -19z m125 -168 c5 -10 10 -41 10 -69 0 -115 -39 -203 -95
-213 -32 -6 -32 -4 0 153 37 183 32 171 55 159 11 -6 24 -19 30 -30z"/>
<path d="M5007 1655 c-37 -6 -69 -14 -71 -16 -2 -2 15 -128 40 -279 24 -151
43 -281 44 -289 0 -10 11 -12 48 -6 26 4 51 10 55 15 5 4 1 50 -9 101 -9 52
-17 100 -18 107 -1 7 16 19 37 27 76 26 114 88 104 170 -10 92 -65 163 -137
177 -14 3 -55 0 -93 -7z m97 -111 c8 -3 20 -21 26 -40 10 -28 9 -39 -3 -58 -9
-13 -24 -26 -35 -28 -17 -5 -21 2 -31 50 -6 30 -11 61 -11 69 0 14 27 17 54 7z"/>
<path d="M4724 1611 c-128 -78 -138 -402 -16 -530 47 -50 102 -67 160 -51 l43
11 -7 52 c-7 68 -12 80 -25 72 -18 -12 -79 -8 -95 6 -45 37 -71 151 -54 233
14 67 39 96 86 96 l35 0 -7 58 c-3 31 -8 60 -11 65 -8 14 -78 7 -109 -12z"/>
<path d="M4029 1598 c-90 -60 -148 -317 -104 -465 33 -111 155 -158 240 -91
43 34 66 92 76 196 5 53 8 97 6 98 -1 2 -37 6 -78 10 -74 6 -76 6 -82 -17 -4
-13 -7 -39 -7 -56 0 -28 4 -33 24 -33 31 0 35 -7 24 -47 -11 -41 -41 -59 -74
-44 -36 16 -47 76 -35 178 18 143 62 198 109 138 l21 -26 45 23 46 24 -26 52
c-41 82 -115 106 -185 60z"/>
<path d="M4320 1536 l0 -65 33 -3 32 -3 3 -227 2 -228 54 0 54 0 -6 230 -5
230 32 0 31 0 0 65 0 65 -115 0 -115 0 0 -64z"/>
</g>
</svg>
